<mxfile host="app.diagrams.net" modified="2023-09-07T03:16:55.117Z" agent="Mozilla/5.0 (Macintosh; Intel Mac OS X 10_15_7) AppleWebKit/537.36 (KHTML, like Gecko) Chrome/116.0.0.0 Safari/537.36" etag="txGOiQeuGnq_g87ZHq4G" version="21.7.2" type="github">
  <diagram name="Page-1" id="8HDvYUbp9abkSZeEV8SH">
    <mxGraphModel dx="1104" dy="677" grid="1" gridSize="10" guides="1" tooltips="1" connect="1" arrows="1" fold="1" page="1" pageScale="1" pageWidth="850" pageHeight="1100" math="0" shadow="0">
      <root>
        <mxCell id="0" />
        <mxCell id="1" parent="0" />
        <mxCell id="uLjpiKEUAWGR_D7GjgJN-1" value="" style="shape=image;verticalLabelPosition=bottom;verticalAlign=top;imageAspect=1;image=https://raw.githubusercontent.com/GovA11y/.github/main/assets/logos/transparent/full.svg" parent="1" vertex="1">
          <mxGeometry x="315" y="10" width="220" height="170" as="geometry" />
        </mxCell>
      </root>
    </mxGraphModel>
  </diagram>
</mxfile>
